<?xml version="1.0" encoding="UTF-8"?>
<svg id="Layer_1" xmlns="http://www.w3.org/2000/svg" version="1.1" viewBox="0 0 540.49 209.34">
  <!-- Generator: Adobe Illustrator 29.0.0, SVG Export Plug-In . SVG Version: 2.1.0 Build 186)  -->
  <defs>
    <style>
      .st0 {
        fill: #009c52;
      }

      .st1 {
        fill: #009e52;
      }

      .st2 {
        fill: #f18233;
      }
    </style>
  </defs>
  <path class="st2" d="M40.65,104.67c0-52.85,94.82-96.05,214.37-99.04-4.4-.11-8.82-.17-13.28-.17C116,5.45,14.08,49.87,14.08,104.67s101.92,99.22,227.65,99.22c4.46,0,8.89-.06,13.28-.17-119.55-3-214.37-46.19-214.37-99.04Z"/>
  <path class="st2" d="M457.35,33.67c15.8,15.95,26.16,42.77,26.16,73.17s-10.37,57.22-26.16,73.17c22.84-15.95,37.83-42.77,37.83-73.17s-14.99-57.22-37.83-73.17Z"/>
  <path class="st0" d="M484.51,51.61c11.92,12.04,19.75,32.28,19.75,55.23s-7.83,43.19-19.75,55.23c17.24-12.04,28.55-32.28,28.55-55.23s-11.31-43.19-28.55-55.23Z"/>
  <path class="st2" d="M513.53,80.98c5.38,5.43,8.91,14.56,8.91,24.91s-3.53,19.48-8.91,24.91c7.77-5.43,12.88-14.56,12.88-24.91s-5.1-19.48-12.88-24.91Z"/>
  <g>
    <path class="st1" d="M112.25,80.67c2.7.77,4.24,1.16,4.64,1.16,1.03,0,1.76-.2,2.2-.6.43-.4.8-.97,1.11-1.72h1.58l.56,15.16h-1.65c-1.48-3.49-3-6.1-4.57-7.81-2.84-3-6.53-4.5-11.08-4.5s-8.68,1.75-12.19,5.26c-3.51,3.51-5.26,9.28-5.26,17.32,0,6.64,1.75,11.82,5.24,15.55,3.49,3.73,7.81,5.59,12.94,5.59.87,0,1.89-.08,3.06-.25,1.17-.16,2.29-.42,3.34-.77,1.71-.56,2.78-1.05,3.2-1.46.42-.41.63-1.01.63-1.81v-11.48c0-2.78-.39-4.52-1.18-5.2-.79-.68-2.5-1.11-5.15-1.27v-1.34h18.36v1.34c-1.78.12-2.97.41-3.55.88-.99.75-1.48,2.3-1.48,4.64v14.18c0,.84-2.07,1.97-6.21,3.38-4.14,1.41-8.12,2.11-11.94,2.11-7.04,0-12.97-2.05-17.8-6.16-5.32-4.53-7.99-10.6-7.99-18.22,0-6.71,2.12-12.45,6.37-17.24,4.67-5.28,10.86-7.92,18.57-7.92,2.79,0,5.53.39,8.23,1.16Z"/>
    <path class="st1" d="M128.75,126.68c2.77-.26,4.49-.79,5.17-1.61.68-.82,1.02-2.72,1.02-5.71v-31.2c0-2.53-.38-4.19-1.14-4.98-.76-.79-2.44-1.28-5.05-1.49v-1.34h19.95c4.15,0,7.61.53,10.38,1.58,5.25,1.99,7.88,5.66,7.88,10.99,0,3.58-1.17,6.33-3.5,8.25-2.33,1.92-5.5,3.18-9.51,3.79l14.84,18.28c.92,1.12,1.83,1.93,2.74,2.44.91.51,2.09.84,3.52.98v1.34h-11.6l-18.02-22.2-3.16.18v14.2c0,2.66.4,4.35,1.21,5.06.81.71,2.57,1.19,5.29,1.42v1.34h-20.02v-1.34ZM153.37,101.71c3.82-1.57,5.73-4.52,5.73-8.85s-1.71-7.01-5.14-8.53c-1.83-.82-4.26-1.23-7.28-1.23-2.04,0-3.29.15-3.75.44-.46.29-.69.98-.69,2.05v17.73c5.18-.19,8.89-.73,11.12-1.62Z"/>
    <path class="st1" d="M175.61,128.02v-1.34c1.85-.21,3.24-.91,4.17-2.09.93-1.18,2.51-4.43,4.76-9.73l15.01-35.35h1.43l17.95,40.84c1.2,2.71,2.15,4.38,2.87,5.02.71.64,1.92,1.08,3.61,1.31v1.34h-18.32v-1.34c2.1-.19,3.46-.41,4.07-.68.61-.27.91-.93.91-1.98,0-.35-.12-.97-.35-1.86-.24-.89-.56-1.82-.99-2.8l-2.88-6.93h-18.99c-1.87,4.71-2.99,7.59-3.35,8.63-.36,1.04-.55,1.86-.55,2.47,0,1.21.49,2.05,1.48,2.52.61.28,1.75.49,3.44.63v1.34h-14.28ZM206.64,109.51l-8.26-19.84-8.29,19.84h16.55Z"/>
    <path class="st1" d="M225.94,126.68c2.98-.3,4.89-.98,5.73-2.02.84-1.04,1.27-3.46,1.27-7.26v-31.74l-.98-1.16c-1.06-1.24-1.95-2.01-2.69-2.3-.74-.29-1.85-.46-3.32-.51v-1.34h12.29l27.81,34.47v-23.94c0-3.94-.59-6.5-1.76-7.69-.77-.77-2.49-1.27-5.14-1.5v-1.34h16.92v1.34c-2.74.28-4.57.95-5.49,2-.92,1.05-1.37,3.47-1.37,7.25v37.92h-1.23l-31.87-39.5v28.04c0,3.94.57,6.5,1.72,7.7.75.77,2.43,1.3,5.03,1.58v1.34h-16.92v-1.34Z"/>
    <path class="st1" d="M276.88,126.68c2.63-.28,4.34-.75,5.14-1.42.8-.66,1.2-2.35,1.2-5.05v-32.05c0-2.63-.39-4.31-1.16-5.07-.77-.75-2.5-1.22-5.17-1.41v-1.34h19.42c6.54,0,12.08,1.08,16.6,3.24,8.16,3.87,12.24,10.79,12.24,20.75,0,3.59-.73,7-2.2,10.24-1.47,3.24-3.68,5.97-6.63,8.2-1.88,1.41-3.82,2.47-5.84,3.2-3.68,1.36-8.21,2.04-13.58,2.04h-20.01v-1.34ZM291.39,124.78c.57.38,1.76.56,3.57.56,5.63,0,10.26-1.11,13.89-3.34,5.58-3.43,8.37-9.28,8.37-17.57,0-7.39-2.3-12.96-6.89-16.69-3.94-3.19-9.16-4.79-15.65-4.79-1.62,0-2.71.18-3.29.53-.58.35-.86,1.13-.86,2.32v36.65c0,1.17.29,1.95.86,2.32Z"/>
    <path class="st1" d="M327.11,126.68c2.65-.28,4.37-.75,5.15-1.42.79-.66,1.18-2.35,1.18-5.05v-32.05c0-2.56-.39-4.23-1.16-5.01-.77-.79-2.5-1.27-5.17-1.46v-1.34h38.27l.25,10.31h-1.83c-.61-3.17-1.52-5.23-2.74-6.16-1.22-.93-3.94-1.4-8.16-1.4h-9.81c-1.06,0-1.71.17-1.96.51-.25.34-.37.98-.37,1.92v16.08h11.12c3.07,0,5.03-.45,5.87-1.37.84-.91,1.52-2.75,2.04-5.53h1.69v16.64h-1.69c-.54-2.79-1.23-4.64-2.08-5.54-.84-.9-2.79-1.35-5.84-1.35h-11.12v17.83c0,1.43.45,2.27,1.36,2.53.9.26,3.61.39,8.12.39,4.88,0,8.49-.53,10.81-1.6,2.33-1.07,4.41-3.65,6.27-7.76h2.01l-3.27,12.17h-38.94v-1.34Z"/>
    <path class="st1" d="M390.29,80.35v1.34c-2.77.19-4.56.65-5.38,1.39-.82.74-1.23,2.43-1.23,5.08v23.04c0,3.78.52,6.72,1.55,8.83,1.92,3.85,5.57,5.77,10.94,5.77,5.89,0,9.84-1.97,11.85-5.91,1.13-2.2,1.69-5.6,1.69-10.2v-18.75c0-3.92-.47-6.37-1.41-7.37-.94-1-2.72-1.62-5.35-1.88v-1.34h16.67v1.34c-2.79.3-4.61.98-5.47,2.02-.86,1.04-1.28,3.45-1.28,7.23v18.75c0,4.97-.76,8.85-2.29,11.64-2.81,5.14-8.16,7.7-16.04,7.7s-13.09-2.53-15.9-7.6c-1.53-2.72-2.29-6.31-2.29-10.76v-22.51c0-2.63-.4-4.31-1.21-5.05-.81-.74-2.57-1.21-5.29-1.42v-1.34h20.44Z"/>
    <path class="st1" d="M420.26,126.68c2.77-.26,4.49-.79,5.17-1.61.68-.82,1.02-2.72,1.02-5.71v-31.2c0-2.53-.38-4.19-1.14-4.98-.76-.79-2.44-1.28-5.05-1.49v-1.34h19.95c4.15,0,7.61.53,10.38,1.58,5.25,1.99,7.88,5.66,7.88,10.99,0,3.58-1.17,6.33-3.5,8.25-2.33,1.92-5.5,3.18-9.51,3.79l14.84,18.28c.92,1.12,1.83,1.93,2.74,2.44.91.51,2.09.84,3.52.98v1.34h-11.6l-18.02-22.2-3.16.18v14.2c0,2.66.4,4.35,1.21,5.06.81.71,2.57,1.19,5.29,1.42v1.34h-20.02v-1.34ZM444.88,101.71c3.82-1.57,5.73-4.52,5.73-8.85s-1.71-7.01-5.14-8.53c-1.83-.82-4.26-1.23-7.28-1.23-2.04,0-3.29.15-3.75.44-.46.29-.69.98-.69,2.05v17.73c5.18-.19,8.89-.73,11.12-1.62Z"/>
  </g>
  <path d="M500.75,54.37c-1.3,0-2.52-.25-3.67-.74-1.14-.49-2.14-1.17-3.01-2.03-.86-.86-1.54-1.87-2.03-3.01-.49-1.14-.74-2.36-.74-3.67s.25-2.52.74-3.67c.49-1.14,1.17-2.15,2.03-3.01s1.87-1.54,3.01-2.03c1.14-.49,2.36-.73,3.67-.73s2.52.24,3.67.73c1.14.49,2.14,1.17,3.01,2.03.86.87,1.54,1.87,2.03,3.01.49,1.14.74,2.36.74,3.67s-.25,2.52-.74,3.67c-.49,1.14-1.17,2.14-2.03,3.01-.86.86-1.87,1.54-3.01,2.03-1.14.49-2.36.74-3.67.74ZM500.75,52.8c1.09,0,2.1-.2,3.05-.61s1.79-.97,2.51-1.69,1.29-1.56,1.69-2.51.61-1.97.61-3.05-.2-2.11-.61-3.06c-.41-.95-.97-1.79-1.69-2.51-.72-.72-1.56-1.28-2.51-1.69s-1.97-.61-3.05-.61-2.1.2-3.05.61-1.79.97-2.51,1.69c-.72.72-1.29,1.55-1.69,2.51-.41.95-.61,1.97-.61,3.06s.2,2.1.61,3.05.97,1.79,1.69,2.51c.72.72,1.56,1.29,2.51,1.69s1.97.61,3.05.61ZM498.37,49.17c-.24,0-.42-.08-.55-.23-.12-.15-.19-.35-.19-.6v-6.89c0-.25.06-.45.19-.6.12-.15.3-.23.54-.23h2.66c.94,0,1.69.25,2.25.74.55.49.83,1.15.83,1.99,0,.57-.16,1.09-.49,1.54s-.76.76-1.31.94l1.39,2.17c.11.18.17.36.17.54s-.06.34-.19.45c-.12.12-.28.18-.48.18-.17,0-.3-.04-.41-.11-.11-.07-.22-.2-.33-.38l-1.6-2.64h-1.73v2.3c0,.26-.06.46-.19.61-.13.14-.31.22-.55.22ZM499.11,44.96h1.69c.56,0,1-.14,1.33-.41.32-.27.49-.66.49-1.17s-.16-.92-.49-1.2-.76-.43-1.29-.43h-1.73v3.2Z"/>
</svg>